<svg width="32" height="32" viewBox="0 0 32 32" fill="none" xmlns="http://www.w3.org/2000/svg">
<path d="M7.72412 0C6.62412 0 5.72412 0.9 5.72412 2V30C5.72412 31.1 6.62412 32 7.72412 32H27.7241C28.8241 32 29.7241 31.1 29.7241 30V8L21.7241 0H7.72412Z" fill="#E2E5E7"/>
<path d="M23.7241 8H29.7241L21.7241 0V6C21.7241 7.1 22.6241 8 23.7241 8Z" fill="#B0B7BD"/>
<path d="M29.7241 14L23.7241 8H29.7241V14Z" fill="#CAD1D8"/>
<path d="M25.7241 26C25.7241 26.55 25.2741 27 24.7241 27H2.72412C2.17412 27 1.72412 26.55 1.72412 26V16C1.72412 15.45 2.17412 15 2.72412 15H24.7241C25.2741 15 25.7241 15.45 25.7241 16V26Z" fill="#A066AA"/>
<path d="M5.52637 18.9464C5.52637 18.6824 5.73337 18.3934 6.06937 18.3934H7.91737C8.95637 18.3934 9.89237 19.0894 9.89237 20.4244C9.89237 21.6884 8.95637 22.3914 7.91737 22.3914H6.58037V23.4474C6.58037 23.8004 6.35837 23.9994 6.06937 23.9994C5.80537 23.9994 5.52637 23.8004 5.52637 23.4474V18.9464ZM6.58037 19.4014V21.3924H7.91637C8.45137 21.3924 8.87537 20.9204 8.87537 20.4244C8.87537 19.8644 8.45137 19.4014 7.91637 19.4014H6.58037Z" fill="white"/>
<path d="M10.9112 19.0264C10.9112 18.7374 10.9752 18.4584 11.3912 18.4584C11.6782 18.4584 11.7432 18.5304 11.9582 18.7374L14.6042 22.0484V18.9464C14.6042 18.6824 14.8352 18.3934 15.1082 18.3934C15.3962 18.3934 15.6752 18.6824 15.6752 18.9464V23.4474C15.6752 23.8004 15.4592 23.9344 15.2512 23.9994C14.9722 23.9994 14.8352 23.9354 14.6042 23.7204L11.9582 20.3614V23.4484C11.9582 23.8014 11.7422 24.0004 11.4542 24.0004C11.1662 24.0004 10.9102 23.8014 10.9102 23.4484V19.0264H10.9112Z" fill="white"/>
<path d="M21.6901 23.3844C21.1221 23.8554 20.426 24.0564 19.723 24.0564C18.043 24.0564 16.8521 23.0964 16.8521 21.1934C16.8521 19.5784 18.1081 18.3234 19.7941 18.3234C20.4261 18.3234 21.1211 18.5394 21.6171 19.0274C22.1051 19.5064 21.4011 20.2184 20.9221 19.7954C20.6261 19.5064 20.2101 19.2914 19.7941 19.2914C18.8271 19.2914 17.892 20.0664 17.892 21.1934C17.892 22.3774 18.675 23.0964 19.723 23.0964C20.21 23.0964 20.6261 22.9524 20.9221 22.7364V21.7544H19.723C19.011 21.7544 19.083 20.7774 19.723 20.7774H21.3221C21.6181 20.7774 21.889 21.0024 21.889 21.2504V22.9534C21.889 23.0964 21.8261 23.2314 21.6901 23.3844Z" fill="white"/>
<path d="M24.7241 27H5.72412V28H24.7241C25.2741 28 25.7241 27.55 25.7241 27V26C25.7241 26.55 25.2741 27 24.7241 27Z" fill="#CAD1D8"/>
</svg>
