<svg fill="none" height="20" viewBox="0 0 20 20" width="20" xmlns="http://www.w3.org/2000/svg">
    <path
        d="M7.6 2H2.8a.8.8 0 00-.799.8v4.8a.8.8 0 00.8.8h4.8a.8.8 0 00.8-.8V2.8a.8.8 0 00-.8-.8zM7.6 11.6H2.8a.8.8 0 00-.799.8v4.8a.8.8 0 00.8.8h4.8a.8.8 0 00.8-.8v-4.8a.8.8 0 00-.8-.8zM17.2 2h-4.8a.8.8 0 00-.8.8v4.8a.8.8 0 00.8.8h4.8a.8.8 0 00.8-.8V2.8a.8.8 0 00-.8-.8zM11.6 11.6v3.2M11.6 18h3.2v-6.4M14.8 13.2H18M18 16.4V18"
        stroke="#000" stroke-linecap="round" stroke-linejoin="round"  stroke-width="1.25" />
</svg>