<svg width="20" height="18" viewBox="0 0 20 18" fill="none" xmlns="http://www.w3.org/2000/svg">
<path d="M19.5 9.00001C19.5002 11.3662 18.5686 13.6372 16.9069 15.3216C15.2451 17.006 12.9869 17.9682 10.6209 18H10.5C8.20147 18.0057 5.98901 17.1261 4.32187 15.5438C4.25028 15.476 4.19273 15.3949 4.1525 15.3049C4.11227 15.215 4.09016 15.118 4.08741 15.0195C4.08467 14.921 4.10136 14.8229 4.13652 14.7309C4.17168 14.6388 4.22463 14.5546 4.29234 14.483C4.36006 14.4114 4.44121 14.3538 4.53116 14.3136C4.62112 14.2734 4.71812 14.2513 4.81662 14.2485C4.91512 14.2458 5.0132 14.2625 5.10525 14.2976C5.19731 14.3328 5.28153 14.3857 5.35312 14.4534C6.42544 15.4647 7.77195 16.1376 9.22447 16.3881C10.677 16.6385 12.1711 16.4554 13.5202 15.8617C14.8692 15.2679 16.0134 14.2898 16.8098 13.0495C17.6062 11.8092 18.0195 10.3618 17.9981 8.88802C17.9766 7.41423 17.5214 5.97943 16.6892 4.76285C15.8571 3.54628 14.6849 2.60187 13.3192 2.04761C11.9534 1.49334 10.4546 1.3538 9.00998 1.6464C7.56537 1.939 6.239 2.65078 5.19656 3.69282C5.1889 3.70111 5.18076 3.70893 5.17219 3.71626L2.68031 6.00001H5.25C5.44891 6.00001 5.63968 6.07903 5.78033 6.21968C5.92098 6.36033 6 6.5511 6 6.75001C6 6.94892 5.92098 7.13969 5.78033 7.28034C5.63968 7.42099 5.44891 7.50001 5.25 7.50001H0.75C0.551088 7.50001 0.360322 7.42099 0.21967 7.28034C0.0790176 7.13969 0 6.94892 0 6.75001V2.25001C0 2.0511 0.0790176 1.86033 0.21967 1.71968C0.360322 1.57903 0.551088 1.50001 0.75 1.50001C0.948912 1.50001 1.13968 1.57903 1.28033 1.71968C1.42098 1.86033 1.5 2.0511 1.5 2.25001V5.04376L4.14844 2.62501C5.40842 1.36992 7.012 0.516262 8.75675 0.17179C10.5015 -0.172682 12.3092 0.00747967 13.9516 0.689531C15.5941 1.37158 16.9976 2.52495 17.9851 4.00402C18.9726 5.4831 19.4997 7.22159 19.5 9.00001Z" fill="#333333"/>
</svg>
