<svg width="40" height="41" viewBox="0 0 40 41" fill="none" xmlns="http://www.w3.org/2000/svg">
<g clip-path="url(#clip0_4718_6984)">
<path d="M35.4951 40.0801H6.50677C5.1579 40.0801 4.06445 38.9866 4.06445 37.6378V2.5224C4.06445 1.17352 5.1579 0.0800781 6.50677 0.0800781H35.4951C36.844 0.0800781 37.9374 1.17352 37.9374 2.5224V37.6378C37.9374 38.9866 36.844 40.0801 35.4951 40.0801Z" fill="url(#paint0_linear_4718_6984)"/>
<path d="M37.9377 37.6379V4.87152L35.7539 2.68768C35.3495 2.20856 34.7453 1.9043 34.0696 1.9043H7.93286C6.71613 1.9043 5.72949 2.89062 5.72949 4.10736V36.0532C5.72949 36.7288 6.03406 37.3331 6.51288 37.7374L8.85602 40.0803H35.4954C36.8443 40.0803 37.9377 38.9868 37.9377 37.6379Z" fill="url(#paint1_linear_4718_6984)"/>
<path d="M4.06445 31.5088V37.6376C4.06445 38.9865 5.1579 40.08 6.50677 40.08H35.4951C36.844 40.08 37.9374 38.9865 37.9374 37.6376V31.5088H4.06445Z" fill="url(#paint2_linear_4718_6984)"/>
<path d="M27.6965 0.571411C27.4417 0.271118 27.062 0.0800781 26.6369 0.0800781H15.3637C14.5962 0.0800781 13.9736 0.702637 13.9736 1.47015V3.28931C13.9736 3.71411 14.1647 4.09375 14.465 4.34888L22.5097 12.3933C22.7645 12.6936 23.1445 12.8846 23.5693 12.8846H34.8425C35.6103 12.8846 36.2325 12.2624 36.2325 11.4946V9.67572C36.2325 9.25061 36.0415 8.87097 35.7412 8.61615L27.6965 0.571411Z" fill="url(#paint3_linear_4718_6984)"/>
<path d="M34.0696 38.2562H7.93286C6.71613 38.2562 5.72949 37.2699 5.72949 36.0532V4.10736C5.72949 2.89062 6.71613 1.9043 7.93286 1.9043H34.0696C35.2864 1.9043 36.273 2.89062 36.273 4.10736V36.0532C36.273 37.2699 35.2864 38.2562 34.0696 38.2562Z" fill="url(#paint4_linear_4718_6984)"/>
<path d="M35.7412 8.61633L29.0292 1.9043H13.9736V3.28949C13.9736 3.71429 14.165 4.09393 14.4653 4.34906L22.5097 12.3935C22.7648 12.6938 23.1445 12.8848 23.5693 12.8848H34.8425C35.6103 12.8848 36.2325 12.2626 36.2325 11.4948V9.6759C36.2325 9.2511 36.0415 8.87115 35.7412 8.61633Z" fill="url(#paint5_linear_4718_6984)"/>
<path d="M7.93286 38.2562H34.0696C35.2864 38.2562 36.273 37.2698 36.273 36.0531V33.7753L32.0805 29.5831C31.6774 29.1396 31.096 28.8613 30.4496 28.8613H5.72949V36.0528C5.72949 37.2698 6.71613 38.2562 7.93286 38.2562Z" fill="url(#paint6_linear_4718_6984)"/>
<path d="M30.4495 28.8613H4.31274C3.0957 28.8613 2.10938 29.8477 2.10938 31.0647V33.9691C2.10938 36.3366 4.02893 38.2562 6.39679 38.2562H34.2883C33.385 38.2562 32.6526 37.5237 32.6526 36.6204V31.0647C32.6526 29.8477 31.6663 28.8613 30.4495 28.8613Z" fill="url(#paint7_linear_4718_6984)"/>
<path d="M9.31543 13.8877H32.6855V15.1652H9.31543V13.8877Z" fill="#A1B5D8"/>
<path d="M9.31543 18.9189H32.6855V20.1964H9.31543V18.9189Z" fill="#A1B5D8"/>
<path d="M9.31543 23.9492H27.925V25.227H9.31543V23.9492Z" fill="#A1B5D8"/>
<path d="M27.176 3.64062H25.8982V4.87506C25.8982 5.7207 25.2103 6.40887 24.3644 6.40887H18.7668L16.103 3.64062H14.8252V4.87506C14.8252 5.68103 15.1667 6.40826 15.7114 6.92126L21.7658 12.9756C22.2788 13.5207 23.006 13.8619 23.812 13.8619H30.5399C32.0902 13.8619 33.3512 12.6006 33.3512 11.0506V9.81586L27.176 3.64062Z" fill="url(#paint8_linear_4718_6984)"/>
<path d="M24.3647 7.68665H17.6365C16.0865 7.68665 14.8252 6.42535 14.8252 4.87506V3.64062H16.103V4.87506C16.103 5.7207 16.7908 6.40887 17.6365 6.40887H24.3644C25.2103 6.40887 25.8982 5.72101 25.8982 4.87506V3.64062H27.176V4.87506C27.176 6.42535 25.9147 7.68665 24.3647 7.68665Z" fill="url(#paint9_linear_4718_6984)"/>
<path d="M26.6369 4.67938H15.3637C14.5962 4.67938 13.9736 4.05713 13.9736 3.28931V1.47015C13.9736 0.702637 14.5962 0.0800781 15.3637 0.0800781H26.6369C27.4047 0.0800781 28.0273 0.702637 28.0273 1.47015V3.28931C28.0273 4.05713 27.4047 4.67938 26.6369 4.67938Z" fill="url(#paint10_linear_4718_6984)"/>
</g>
<defs>
<linearGradient id="paint0_linear_4718_6984" x1="14.1016" y1="20.0801" x2="32.5196" y2="20.0801" gradientUnits="userSpaceOnUse">
<stop stop-color="#FFC738"/>
<stop offset="0.4286" stop-color="#FFBB23"/>
<stop offset="1" stop-color="#FFA700"/>
</linearGradient>
<linearGradient id="paint1_linear_4718_6984" x1="37.0243" y1="36.1033" x2="-0.0691525" y2="-0.990124" gradientUnits="userSpaceOnUse">
<stop stop-color="#E58200" stop-opacity="0"/>
<stop offset="0.0396" stop-color="#E27F04" stop-opacity="0.039216"/>
<stop offset="0.4671" stop-color="#C15D2F" stop-opacity="0.466667"/>
<stop offset="0.8016" stop-color="#AD4949" stop-opacity="0.8"/>
<stop offset="1" stop-color="#A64153"/>
</linearGradient>
<linearGradient id="paint2_linear_4718_6984" x1="21.0009" y1="36.6191" x2="21.0009" y2="42.5016" gradientUnits="userSpaceOnUse">
<stop stop-color="#E58200" stop-opacity="0"/>
<stop offset="0.0396" stop-color="#E27F04" stop-opacity="0.039216"/>
<stop offset="0.4671" stop-color="#C15D2F" stop-opacity="0.466667"/>
<stop offset="0.8016" stop-color="#AD4949" stop-opacity="0.8"/>
<stop offset="1" stop-color="#A64153"/>
</linearGradient>
<linearGradient id="paint3_linear_4718_6984" x1="27.2207" y1="11.1367" x2="21.7694" y2="-0.844841" gradientUnits="userSpaceOnUse">
<stop stop-color="#E58200" stop-opacity="0"/>
<stop offset="0.2044" stop-color="#DD7A0B" stop-opacity="0.203922"/>
<stop offset="0.5605" stop-color="#C76327" stop-opacity="0.560784"/>
<stop offset="1" stop-color="#A64153"/>
</linearGradient>
<linearGradient id="paint4_linear_4718_6984" x1="11.0104" y1="5.06175" x2="39.0067" y2="47.1465" gradientUnits="userSpaceOnUse">
<stop stop-color="#FFFCF8"/>
<stop offset="0.1875" stop-color="#FAF8F6"/>
<stop offset="0.4041" stop-color="#ECEEF2"/>
<stop offset="0.6353" stop-color="#D5DCEA"/>
<stop offset="0.875" stop-color="#B5C4DF"/>
<stop offset="1" stop-color="#A1B5D8"/>
</linearGradient>
<linearGradient id="paint5_linear_4718_6984" x1="25.6207" y1="8.38894" x2="22.2136" y2="-4.1605" gradientUnits="userSpaceOnUse">
<stop stop-color="#A1B5D8" stop-opacity="0"/>
<stop offset="0.5515" stop-color="#899AB2" stop-opacity="0.552941"/>
<stop offset="1" stop-color="#748290"/>
</linearGradient>
<linearGradient id="paint6_linear_4718_6984" x1="29.3277" y1="43.6952" x2="19.4889" y2="33.8564" gradientUnits="userSpaceOnUse">
<stop stop-color="#A1B5D8" stop-opacity="0"/>
<stop offset="0.0343" stop-color="#9FB3D5" stop-opacity="0.035294"/>
<stop offset="0.4515" stop-color="#8898AF" stop-opacity="0.45098"/>
<stop offset="0.788" stop-color="#798898" stop-opacity="0.788235"/>
<stop offset="1" stop-color="#748290"/>
</linearGradient>
<linearGradient id="paint7_linear_4718_6984" x1="18.1989" y1="33.8087" x2="18.1989" y2="40.2855" gradientUnits="userSpaceOnUse">
<stop stop-color="#FFFCF8"/>
<stop offset="0.1875" stop-color="#FAF8F6"/>
<stop offset="0.4041" stop-color="#ECEEF2"/>
<stop offset="0.6353" stop-color="#D5DCEA"/>
<stop offset="0.875" stop-color="#B5C4DF"/>
<stop offset="1" stop-color="#A1B5D8"/>
</linearGradient>
<linearGradient id="paint8_linear_4718_6984" x1="25.5292" y1="10.8231" x2="19.0132" y2="-3.5293" gradientUnits="userSpaceOnUse">
<stop stop-color="#A1B5D8" stop-opacity="0"/>
<stop offset="0.5515" stop-color="#899AB2" stop-opacity="0.552941"/>
<stop offset="1" stop-color="#748290"/>
</linearGradient>
<linearGradient id="paint9_linear_4718_6984" x1="21.0006" y1="6.49408" x2="21.0006" y2="8.15558" gradientUnits="userSpaceOnUse">
<stop stop-color="#3B395F"/>
<stop offset="0.8022" stop-color="#1B1F3A"/>
<stop offset="1" stop-color="#131830"/>
</linearGradient>
<linearGradient id="paint10_linear_4718_6984" x1="21.0004" y1="1.2133" x2="21.0004" y2="5.47027" gradientUnits="userSpaceOnUse">
<stop stop-color="#FF4974"/>
<stop offset="0.2051" stop-color="#FD436F"/>
<stop offset="0.4853" stop-color="#F63162"/>
<stop offset="0.8075" stop-color="#EC154D"/>
<stop offset="1" stop-color="#E4003D"/>
</linearGradient>
<clipPath id="clip0_4718_6984">
<rect width="40" height="40" fill="white" transform="translate(0 0.0800781)"/>
</clipPath>
</defs>
</svg>
