<svg width="32" height="32" viewBox="0 0 32 32" fill="none" xmlns="http://www.w3.org/2000/svg">
<path d="M29 15.986C29.0009 16.3423 28.9066 16.6924 28.7269 17.0001C28.5471 17.3078 28.2884 17.5618 27.9775 17.736L6.98875 29.7372C6.6872 29.9082 6.34666 29.9986 6 29.9997C5.68031 29.9991 5.36543 29.9218 5.08176 29.7744C4.7981 29.6269 4.5539 29.4137 4.36965 29.1524C4.1854 28.8911 4.06646 28.5895 4.02281 28.2728C3.97915 27.9561 4.01205 27.6336 4.11875 27.3322L7.5375 17.3385C7.57119 17.2396 7.635 17.1538 7.71997 17.093C7.80493 17.0322 7.9068 16.9996 8.01125 16.9997H17C17.1371 17 17.2728 16.9721 17.3986 16.9178C17.5245 16.8634 17.6378 16.7838 17.7316 16.6838C17.8254 16.5838 17.8976 16.4656 17.9438 16.3365C17.9899 16.2075 18.0091 16.0703 18 15.9335C17.9773 15.6763 17.8583 15.4372 17.6669 15.2641C17.4754 15.0909 17.2256 14.9965 16.9675 14.9997H8.02C7.9157 14.9999 7.81395 14.9675 7.729 14.907C7.64405 14.8464 7.58015 14.7609 7.54625 14.6622L4.11625 4.66222C3.98268 4.27904 3.96883 3.86428 4.07655 3.47304C4.18426 3.0818 4.40844 2.73257 4.71931 2.47175C5.03019 2.21092 5.41305 2.05083 5.81706 2.01274C6.22107 1.97465 6.6271 2.06035 6.98125 2.25847L27.9813 14.2447C28.2901 14.4186 28.5472 14.6715 28.7263 14.9775C28.9053 15.2834 28.9997 15.6315 29 15.986Z" fill="#FA541C"/>
</svg>
